<svg width="20" height="20" viewBox="0 0 20 20" fill="none" xmlns="http://www.w3.org/2000/svg">
<rect x="0.5" y="4.5" width="19" height="11" rx="5.5" stroke="black"/>
<path d="M8.25 13C8.27604 12.5182 8.375 12.099 8.54688 11.7422C8.72135 11.3854 9.0599 11.0612 9.5625 10.7695L10.3125 10.3359C10.6484 10.1406 10.8841 9.97396 11.0195 9.83594C11.2331 9.61979 11.3398 9.3724 11.3398 9.09375C11.3398 8.76823 11.2422 8.51042 11.0469 8.32031C10.8516 8.1276 10.5911 8.03125 10.2656 8.03125C9.78385 8.03125 9.45052 8.21354 9.26562 8.57812C9.16667 8.77344 9.11198 9.04427 9.10156 9.39062H8.38672C8.39453 8.90365 8.48438 8.50651 8.65625 8.19922C8.96094 7.65755 9.4987 7.38672 10.2695 7.38672C10.9102 7.38672 11.3776 7.5599 11.6719 7.90625C11.9688 8.2526 12.1172 8.63802 12.1172 9.0625C12.1172 9.51042 11.9596 9.89323 11.6445 10.2109C11.4622 10.3958 11.1354 10.6198 10.6641 10.8828L10.1289 11.1797C9.8737 11.3203 9.67318 11.4544 9.52734 11.582C9.26693 11.8086 9.10286 12.0599 9.03516 12.3359H12.0898V13H8.25Z" fill="black"/>
</svg>
