<svg width="20" height="20" viewBox="0 0 20 20" fill="none" xmlns="http://www.w3.org/2000/svg">
<rect x="0.5" y="4.5" width="19" height="11" rx="5.5" stroke="black"/>
<path d="M10.0781 13.1523C9.41667 13.1523 8.9362 12.9714 8.63672 12.6094C8.33984 12.2448 8.19141 11.8021 8.19141 11.2812H8.92578C8.95703 11.6432 9.02474 11.9062 9.12891 12.0703C9.3112 12.3646 9.64062 12.5117 10.1172 12.5117C10.487 12.5117 10.7839 12.4128 11.0078 12.2148C11.2318 12.0169 11.3438 11.7617 11.3438 11.4492C11.3438 11.0638 11.2253 10.7943 10.9883 10.6406C10.7539 10.487 10.4271 10.4102 10.0078 10.4102C9.96094 10.4102 9.91276 10.4115 9.86328 10.4141C9.81641 10.4141 9.76823 10.4154 9.71875 10.418V9.79688C9.79167 9.80469 9.85286 9.8099 9.90234 9.8125C9.95182 9.8151 10.0052 9.81641 10.0625 9.81641C10.3255 9.81641 10.5417 9.77474 10.7109 9.69141C11.0078 9.54557 11.1562 9.28516 11.1562 8.91016C11.1562 8.63151 11.0573 8.41667 10.8594 8.26562C10.6615 8.11458 10.431 8.03906 10.168 8.03906C9.69922 8.03906 9.375 8.19531 9.19531 8.50781C9.09635 8.67969 9.04036 8.92448 9.02734 9.24219H8.33203C8.33203 8.82552 8.41536 8.47135 8.58203 8.17969C8.86849 7.65885 9.3724 7.39844 10.0938 7.39844C10.6641 7.39844 11.1055 7.52604 11.418 7.78125C11.7305 8.03385 11.8867 8.40104 11.8867 8.88281C11.8867 9.22656 11.7943 9.50521 11.6094 9.71875C11.4948 9.85156 11.3464 9.95573 11.1641 10.0312C11.4583 10.112 11.6875 10.2682 11.8516 10.5C12.0182 10.7292 12.1016 11.0104 12.1016 11.3438C12.1016 11.8776 11.9258 12.3125 11.5742 12.6484C11.2227 12.9844 10.724 13.1523 10.0781 13.1523Z" fill="black"/>
</svg>
