<?xml version="1.0" encoding="UTF-8"?>
<svg width="150px" height="150px" viewBox="0 0 150 150" version="1.1" xmlns="http://www.w3.org/2000/svg" xmlns:xlink="http://www.w3.org/1999/xlink">
    <!-- Generator: Sketch 53.2 (72643) - https://sketchapp.com/ -->
    <title>Artboard</title>
    <desc>Created with Sketch.</desc>
    <g id="Artboard" stroke="none" stroke-width="1" fill="none" fill-rule="evenodd">
        <rect id="Rectangle" fill="#EAEAEA" x="0" y="0" width="150" height="150"></rect>
        <path d="M42.09,85 L33.18,68.68 L33.18,85 L29.58,85 L29.58,64 L34.38,64 L43.29,80.26 L43.29,64 L46.89,64 L46.89,85 L42.09,85 Z M57.87,85.3 C55.7299893,85.3 53.9700069,84.5700073 52.59,83.11 C51.2099931,81.6499927 50.52,79.7800114 50.52,77.5 C50.52,75.2199886 51.2099931,73.3500073 52.59,71.89 C53.9700069,70.4299927 55.7299893,69.7 57.87,69.7 C60.0300108,69.7 61.7999931,70.4299927 63.18,71.89 C64.5600069,73.3500073 65.25,75.2199886 65.25,77.5 C65.25,79.7800114 64.5600069,81.6499927 63.18,83.11 C61.7999931,84.5700073 60.0300108,85.3 57.87,85.3 Z M58.02,82.48 C59.1400056,82.48 60.0449966,82.0400044 60.735,81.16 C61.4250034,80.2799956 61.77,79.0600078 61.77,77.5 C61.77,75.9399922 61.4250034,74.7200044 60.735,73.84 C60.0449966,72.9599956 59.1400056,72.52 58.02,72.52 L57.75,72.52 C56.6099943,72.52 55.6950035,72.9649955 55.005,73.855 C54.3149966,74.7450044 53.97,75.9599923 53.97,77.5 C53.97,79.0400077 54.3149966,80.2549956 55.005,81.145 C55.6950035,82.0350045 56.6099943,82.48 57.75,82.48 L58.02,82.48 Z M76.17,85 L76.17,64 L91.23,64 L91.23,67.21 L79.77,67.21 L79.77,73.18 L89.73,73.18 L89.73,76.42 L79.77,76.42 L79.77,85 L76.17,85 Z M93.96,67.72 L93.96,64 L97.71,64 L97.71,67.72 L93.96,67.72 Z M94.08,85 L94.08,70 L97.53,70 L97.53,85 L94.08,85 Z M101.73,85 L101.73,64 L105.18,64 L105.18,85 L101.73,85 Z M122.16,80.38 C121.839998,81.9000076 121.100006,83.0999956 119.94,83.98 C118.779994,84.8600044 117.340009,85.3 115.62,85.3 C113.63999,85.3 111.960007,84.605007 110.58,83.215 C109.199993,81.8249931 108.51,79.9200121 108.51,77.5 C108.51,75.1399882 109.164993,73.2500071 110.475,71.83 C111.785007,70.4099929 113.47999,69.7 115.56,69.7 C117.64001,69.7 119.269994,70.3649934 120.45,71.695 C121.630006,73.0250066 122.22,74.7499894 122.22,76.87 C122.22,77.5300033 122.2,78.0399982 122.16,78.4 L111.87,78.4 C111.95,79.6600063 112.364996,80.6549964 113.115,81.385 C113.865004,82.1150037 114.709995,82.48 115.65,82.48 L115.83,82.48 C116.570004,82.48 117.199997,82.2900019 117.72,81.91 C118.240003,81.5299981 118.579999,81.0200032 118.74,80.38 L122.16,80.38 Z M111.96,75.73 L118.83,75.73 C118.77,74.6899948 118.435003,73.8950028 117.825,73.345 C117.214997,72.7949972 116.470004,72.52 115.59,72.52 L115.38,72.52 C114.519996,72.52 113.765003,72.7949972 113.115,73.345 C112.464997,73.8950028 112.080001,74.6899948 111.96,75.73 Z" id="NoFile" fill="#000000" fill-rule="nonzero" opacity="0.498001825"></path>
    </g>
</svg>