<?xml version="1.0" encoding="UTF-8"?>
<svg width="600px" height="450px" viewBox="0 0 600 450" version="1.1" xmlns="http://www.w3.org/2000/svg" xmlns:xlink="http://www.w3.org/1999/xlink">
    <!-- Generator: Sketch 53.2 (72643) - https://sketchapp.com/ -->
    <title>Artboard</title>
    <desc>Created with Sketch.</desc>
    <g id="Artboard" stroke="none" stroke-width="1" fill="none" fill-rule="evenodd">
        <rect id="Rectangle" fill="#EAEAEA" x="0" y="0" width="600" height="450"></rect>
        <path d="M266.51,235 L257.6,218.68 L257.6,235 L254,235 L254,214 L258.8,214 L267.71,230.26 L267.71,214 L271.31,214 L271.31,235 L266.51,235 Z M282.29,235.3 C280.149989,235.3 278.390007,234.570007 277.01,233.11 C275.629993,231.649993 274.94,229.780011 274.94,227.5 C274.94,225.219989 275.629993,223.350007 277.01,221.89 C278.390007,220.429993 280.149989,219.7 282.29,219.7 C284.450011,219.7 286.219993,220.429993 287.6,221.89 C288.980007,223.350007 289.67,225.219989 289.67,227.5 C289.67,229.780011 288.980007,231.649993 287.6,233.11 C286.219993,234.570007 284.450011,235.3 282.29,235.3 Z M282.44,232.48 C283.560006,232.48 284.464997,232.040004 285.155,231.16 C285.845003,230.279996 286.19,229.060008 286.19,227.5 C286.19,225.939992 285.845003,224.720004 285.155,223.84 C284.464997,222.959996 283.560006,222.52 282.44,222.52 L282.17,222.52 C281.029994,222.52 280.115003,222.964996 279.425,223.855 C278.734997,224.745004 278.39,225.959992 278.39,227.5 C278.39,229.040008 278.734997,230.254996 279.425,231.145 C280.115003,232.035004 281.029994,232.48 282.17,232.48 L282.44,232.48 Z M300.59,235 L300.59,214 L315.65,214 L315.65,217.21 L304.19,217.21 L304.19,223.18 L314.15,223.18 L314.15,226.42 L304.19,226.42 L304.19,235 L300.59,235 Z M318.38,217.72 L318.38,214 L322.13,214 L322.13,217.72 L318.38,217.72 Z M318.5,235 L318.5,220 L321.95,220 L321.95,235 L318.5,235 Z M326.15,235 L326.15,214 L329.6,214 L329.6,235 L326.15,235 Z M346.58,230.38 C346.259998,231.900008 345.520006,233.099996 344.36,233.98 C343.199994,234.860004 341.760009,235.3 340.04,235.3 C338.05999,235.3 336.380007,234.605007 335,233.215 C333.619993,231.824993 332.93,229.920012 332.93,227.5 C332.93,225.139988 333.584993,223.250007 334.895,221.83 C336.205007,220.409993 337.89999,219.7 339.98,219.7 C342.06001,219.7 343.689994,220.364993 344.87,221.695 C346.050006,223.025007 346.64,224.749989 346.64,226.87 C346.64,227.530003 346.62,228.039998 346.58,228.4 L336.29,228.4 C336.37,229.660006 336.784996,230.654996 337.535,231.385 C338.285004,232.115004 339.129995,232.48 340.07,232.48 L340.25,232.48 C340.990004,232.48 341.619997,232.290002 342.14,231.91 C342.660003,231.529998 342.999999,231.020003 343.16,230.38 L346.58,230.38 Z M336.38,225.73 L343.25,225.73 C343.19,224.689995 342.855003,223.895003 342.245,223.345 C341.634997,222.794997 340.890004,222.52 340.01,222.52 L339.8,222.52 C338.939996,222.52 338.185003,222.794997 337.535,223.345 C336.884997,223.895003 336.500001,224.689995 336.38,225.73 Z" id="NoFile" fill="#000000" fill-rule="nonzero" opacity="0.498001825"></path>
    </g>
</svg>