<?xml version="1.0" encoding="utf-8"?>
<!-- Generator: Adobe Illustrator 25.2.1, SVG Export Plug-In . SVG Version: 6.00 Build 0)  -->
<svg version="1.1" id="Ebene_1" xmlns="http://www.w3.org/2000/svg" xmlns:xlink="http://www.w3.org/1999/xlink" x="0px" y="0px"
	 viewBox="0 0 1680 1050" style="enable-background:new 0 0 1680 1050;" xml:space="preserve">
<g>
	<path d="M744.5,516.5c21.3-9.3,42.1-26.3,57.4-46.3c11.8-15.4,28-40.5,28-75.3v104.6h0.7l19.1-6.3V375h-24.2
		c-7.2,31.7-20.3,60.8-38.4,84.4c-16.9,22.1-37.4,38.5-59.6,48v26.1h208c-21.2,9-41.3,25.4-56.6,45.4c-12,15.7-29.2,43-29.2,76.2
		V550.5h-0.3l-19.5,6.5v118h24.6c7.2-31.7,20.3-60.8,38.4-84.4c16.9-22.1,37.3-38.4,59.6-47.9v-26.1L744.5,516.5L744.5,516.5z"/>
</g>
</svg>
