<?xml version="1.0" encoding="utf-8"?>
<!-- Generator: Adobe Illustrator 25.2.1, SVG Export Plug-In . SVG Version: 6.00 Build 0)  -->
<svg version="1.1" id="Ebene_1" xmlns="http://www.w3.org/2000/svg" xmlns:xlink="http://www.w3.org/1999/xlink" x="0px" y="0px"
	 viewBox="0 0 660 105" style="enable-background:new 0 0 660 105;" xml:space="preserve">
<g>
	<path d="M619.7,105c25.5,0,40.6-11.6,40.6-31.2c0-23.3-19.9-26.4-37.4-29.2c-13.7-2.1-26.2-4-26.2-16c0-10.6,8.3-16.7,22.4-16.7
		c14.1,0,23.1,8.6,23.9,23.2h14.3C655.8,13.1,641.9,0,619.7,0c-23.7,0-37.6,10.5-37.6,29.6c0,21.6,18.7,24.5,35.4,27.1
		c14.4,2.2,28,4.3,28,18.4c0,11.5-9.4,18.1-25.5,18.1c-15.5,0-25.3-9.3-26.4-24.9h-14.4C580.8,91.4,595.9,105,619.7,105"/>
</g>
<rect x="547.2" y="1.3" width="14.5" height="102.2"/>
<polygon points="437.8,1.3 359.4,1.3 359.4,13 391.3,13 391.3,103.6 405.9,103.6 405.9,13 437.8,13 "/>
<polygon points="329.9,1.3 330.3,102.2 328,102.2 294.7,1.3 266.3,1.3 266.3,103.6 280.8,103.6 280.2,2.7 282.6,2.7 313.8,103.6 
	344.8,103.6 344.8,1.3 "/>
<path d="M183.2,66.3L203,2.7h0.3L223,66.3H183.2z M216.5,1.3h-25.6l-34.1,102.2h14.8l8-25.7l46.9,0l8,25.7h15.6L216.5,1.3z"/>
<polygon points="91.3,92 91.3,58.3 136.4,58.3 136.4,46.7 91.3,46.7 91.3,13 145.2,13 145.2,1.3 76.7,1.3 76.7,103.6 145.2,103.6 
	145.2,92 "/>
<polygon points="0.3,1.3 0.3,103.6 62.2,103.6 62.2,92 14.8,92 14.8,1.3 "/>
<g>
	<path d="M466.9,49.6V13H491c12.9,0,20.5,6.6,20.5,18c0,11.9-7.5,18.7-20.5,18.7H466.9z M512.4,74.3c-5-8.7-13.3-13.1-21.7-13.1
		v-0.3c22.4,0,35.7-11.7,35.7-31.1c0-17.8-13.6-28.5-36.4-28.5h-37.6v102.2h14.5V61.2H489l24.4,42.4h16.3L512.4,74.3z"/>
</g>
</svg>
