<?xml version="1.0" encoding="utf-8"?>
<!-- Generator: Adobe Illustrator 25.2.1, SVG Export Plug-In . SVG Version: 6.00 Build 0)  -->
<svg version="1.1" id="Ebene_1" xmlns="http://www.w3.org/2000/svg" xmlns:xlink="http://www.w3.org/1999/xlink" x="0px" y="0px"
	 viewBox="0 0 225 300" style="enable-background:new 0 0 225 300;" xml:space="preserve">
<g>
	<path d="M17,141.5c21.3-9.3,42.1-26.3,57.4-46.3c11.8-15.4,28-40.5,28-75.3v104.6h0.7l19.1-6.3V0H98c-7.2,31.7-20.3,60.8-38.4,84.4
		C42.7,106.5,22.2,122.9,0,132.4v26.1h208c-21.2,9-41.3,25.4-56.6,45.4c-12,15.7-29.2,43-29.2,76.2V175.5h-0.3l-19.5,6.5v118H127
		c7.2-31.7,20.3-60.8,38.4-84.4c16.9-22.1,37.3-38.4,59.6-47.9v-26.1H17z"/>
</g>
</svg>
