<svg width="230" height="284" viewBox="0 0 230 284" fill="none" xmlns="http://www.w3.org/2000/svg">
<path d="M38.8601 257.171L39.2838 268.133C39.2838 268.133 19.2168 256.348 7.2117 273.046C6.27475 274.349 5.6637 275.879 5.61481 277.477C5.42335 283.675 13.145 285.427 22.7772 280.728C22.7772 280.728 23.0135 286.084 36.3141 283.091C42.7281 281.879 56.6417 279.655 63.8888 278.509C68.0093 277.859 70.3232 273.246 68.1274 269.729C66.6365 267.339 63.1962 265.648 55.7903 266.872L54.943 256.617L54.831 256.631C49.2113 257.381 44.6692 257.635 39.1412 257.181L38.8601 257.171Z" fill="#F98C0B"/>
<path d="M86.0975 256.758C111.558 249.109 137.507 243.228 163.701 238.63C223.006 228.221 215.557 177.121 204.507 155.198C194.231 134.813 179.454 133.031 176.751 87.9007C173.091 26.8138 111.54 27.8483 111.54 27.8483C111.54 27.8442 100.757 27.1735 93.0676 27.6038C93.0676 27.6038 30.117 26.1815 26.7318 86.6037C23.3506 131.081 11.8079 145.442 5.03947 176.49C-0.741079 203.013 -11.1106 246.463 38.4151 258.573C53.6364 262.294 69.6032 261.714 84.6065 257.207L86.0975 256.758Z" fill="#00A7FF"/>
<path d="M191.015 228.536L194.792 237.864C194.792 237.864 208.217 218.95 226.071 229.292C227.465 230.098 228.654 231.246 229.361 232.682C232.1 238.256 225.782 242.996 215.054 242.632C215.054 242.632 217.054 247.612 203.689 250.297C197.338 251.803 183.73 255.437 176.648 257.342C172.621 258.425 168.602 255.162 169.15 251.059C169.523 248.273 171.959 245.331 179.22 243.434L176.124 234.579L175.859 233.704C181.294 232.1 185.915 231.326 190.767 228.662L191.015 228.536Z" fill="#F98C0B"/>
<path d="M115.605 27.9714L118.471 28.2846C118.471 28.2846 117.599 36.2609 114.756 38.9782L115.605 27.9714Z" fill="#0083FF"/>
<path d="M104.642 34.6021C104.642 34.6021 97.4236 34.0162 91.0605 35.0648C83.4305 36.3235 78.3262 34.6223 70.9121 30.9352C70.9121 30.9352 99.4095 27.2986 104.642 34.6021Z" fill="#0083FF"/>
<path d="M114.752 38.9783C114.752 38.9783 120.697 21.6499 105.672 11.7462C98.6731 7.1338 89.8536 6.12162 81.8854 8.76624C70.75 12.4655 59.1197 18.5931 36.0158 0C36.0158 0 35.6614 23.6844 64.3299 29.703C92.9984 35.7216 91.424 27.4968 114.752 38.9783Z" fill="#00A7FF"/>
<path d="M134.864 42.8977C134.925 42.8755 134.986 42.8533 135.05 42.8331C141.437 40.6451 148.21 44.5605 149.619 51.1144C150.157 53.6116 150.088 56.0824 149.407 57.7048C149.407 57.7048 148.024 46.9425 139.775 45.0938C139.182 44.9605 138.575 44.8979 137.968 44.8716C137.349 44.8453 136.463 44.8433 135.351 44.9726C134.066 45.1241 133.646 43.3321 134.864 42.8977Z" fill="#10316B"/>
<path d="M69.7946 48.9545C69.7314 48.9383 69.6683 48.9242 69.6031 48.91C63.0139 47.421 56.7099 52.0395 56.0235 58.7087C55.7628 61.2502 56.1009 63.6989 56.9543 65.2384C56.9543 65.2384 57.156 54.3912 65.1526 51.6678C65.7291 51.4718 66.3238 51.3445 66.9247 51.2536C67.5378 51.1607 68.4177 51.0637 69.5379 51.0738C70.8313 51.0819 71.0534 49.2555 69.7946 48.9545Z" fill="#10316B"/>
<path d="M136.992 102.87C149.824 102.87 160.226 92.5515 160.226 79.8236C160.226 67.0956 149.824 56.7776 136.992 56.7776C124.16 56.7776 113.758 67.0956 113.758 79.8236C113.758 92.5515 124.16 102.87 136.992 102.87Z" fill="white"/>
<path opacity="0.48" d="M136.992 102.87C149.824 102.87 160.226 92.5515 160.226 79.8236C160.226 67.0956 149.824 56.7776 136.992 56.7776C124.16 56.7776 113.758 67.0956 113.758 79.8236C113.758 92.5515 124.16 102.87 136.992 102.87Z" fill="url(#paint0_radial_52_17566)"/>
<path d="M124.736 86.7795C127.302 86.7795 129.382 84.7162 129.382 82.1711C129.382 79.6259 127.302 77.5627 124.736 77.5627C122.17 77.5627 120.09 79.6259 120.09 82.1711C120.09 84.7162 122.17 86.7795 124.736 86.7795Z" fill="#10316B"/>
<path d="M121.959 82.1832C122.936 82.1832 123.727 81.3981 123.727 80.4296C123.727 79.461 122.936 78.6759 121.959 78.6759C120.983 78.6759 120.191 79.461 120.191 80.4296C120.191 81.3981 120.983 82.1832 121.959 82.1832Z" fill="white"/>
<path d="M84.5724 110.537C100.662 110.537 113.705 97.599 113.705 81.6397C113.705 65.6804 100.662 52.7429 84.5724 52.7429C68.4827 52.7429 55.4395 65.6804 55.4395 81.6397C55.4395 97.599 68.4827 110.537 84.5724 110.537Z" fill="white"/>
<path opacity="0.48" d="M84.5724 110.537C100.662 110.537 113.705 97.599 113.705 81.6397C113.705 65.6804 100.662 52.7429 84.5724 52.7429C68.4827 52.7429 55.4395 65.6804 55.4395 81.6397C55.4395 97.599 68.4827 110.537 84.5724 110.537Z" fill="url(#paint1_radial_52_17566)"/>
<path d="M102.14 88.9613C105.358 88.9613 107.967 86.3734 107.967 83.1811C107.967 79.9888 105.358 77.4009 102.14 77.4009C98.9215 77.4009 96.3125 79.9888 96.3125 83.1811C96.3125 86.3734 98.9215 88.9613 102.14 88.9613Z" fill="#10316B"/>
<path d="M98.6576 83.1951C99.8826 83.1951 100.876 82.21 100.876 80.9949C100.876 79.7798 99.8826 78.7948 98.6576 78.7948C97.4325 78.7948 96.4395 79.7798 96.4395 80.9949C96.4395 82.21 97.4325 83.1951 98.6576 83.1951Z" fill="white"/>
<path d="M99.7276 109.999C99.0656 110.462 98.811 111.314 99.1166 112.058C101.498 117.864 111.757 141.488 120.67 140.474C129.551 139.464 133.737 114.381 134.649 108.088C134.769 107.266 134.281 106.476 133.488 106.207L133.34 106.157C130.857 105.318 128.504 104.144 126.312 102.714C123.754 101.043 119.725 98.9783 115.929 99.4086C111.67 99.8935 107.284 103.482 104.858 105.791C103.253 107.316 101.544 108.728 99.7276 109.999Z" fill="#FFE226"/>
<path d="M133.11 107.943C133.11 107.943 117.834 114.224 100.484 111.65C103.802 119.963 114.779 136.789 120.311 136.227C126.155 135.633 132.167 115.09 133.11 107.943Z" fill="#10316B"/>
<path d="M176.94 168.534L175.278 151.23C174.765 145.88 169.976 141.957 164.581 142.466L90.4173 149.477C86.3823 149.858 82.4634 148.018 80.2025 144.68L76.5892 139.345C74.5809 136.381 71.0979 134.744 67.5151 135.084L45.0447 137.207C39.6511 137.716 35.6956 142.466 36.2089 147.818L39.8548 185.764L176.94 168.534Z" fill="#FFBB00"/>
<path d="M39.6856 183.954L46.0731 250.437C46.5925 255.839 51.4279 259.801 56.8745 259.286L174.646 248.154C180.093 247.639 184.087 242.842 183.568 237.44L176.182 160.568C175.598 154.483 170.151 150.02 164.016 150.6L103.502 156.32C101.632 156.497 99.8966 157.366 98.6419 158.754L94.446 163.401C92.0934 166.005 88.8426 167.642 85.3332 167.987C77.0229 168.803 60.999 170.377 50.0531 171.452C43.7165 172.076 39.0827 177.664 39.6856 183.954Z" fill="#FFE226"/>
<path d="M81.5707 207.664C82.6237 218.968 90.0643 228.694 100.756 232.741L82.9679 195.373C81.644 199.328 81.1674 203.514 81.5707 207.664ZM130.844 201.496C130.524 198.607 129.406 195.861 127.615 193.56C125.886 191.259 124.289 189.33 124.053 186.887C123.697 184.091 125.685 181.533 128.504 181.168C128.63 181.155 128.758 181.161 128.886 181.157C123.002 176.668 115.618 174.559 108.227 175.258C98.0955 176.216 88.3411 180.428 83.4873 188.823C85.8338 188.645 94.5494 187.776 94.5494 187.776C96.2176 187.528 96.5659 191.118 94.9059 191.479C94.9059 191.479 93.089 191.554 91.2171 191.829L105.127 220.402L110.718 201.193L105.962 190.435C104.275 190.501 102.275 190.782 102.275 190.782C100.585 190.849 100.228 187.152 101.919 187.079L116.12 185.766C117.786 185.521 118.688 189.043 117.026 189.39C117.026 189.39 115.209 189.469 113.337 189.74L127.245 218.313L129.508 211.287C130.532 208.127 130.982 204.812 130.84 201.494L130.844 201.496ZM112.716 212.22L106.467 234.292C108.923 234.761 111.439 234.828 113.916 234.488C117.254 234.173 120.513 233.29 123.55 231.878C123.456 231.759 123.373 231.629 123.301 231.496L112.716 212.22ZM135.592 188.223C135.826 189.221 135.993 190.233 136.087 191.253C136.386 194.904 135.969 198.579 134.858 202.072L128.353 229.062C141.397 219.562 144.586 201.559 135.588 188.219L135.592 188.223Z" fill="#FFBB00"/>
<path d="M177.905 167.046C177.905 167.046 169.918 184.572 148.643 195.039C136.035 200.731 131.52 199.611 123.763 202.082C120.623 202.783 120.855 213.467 134.32 219.629C143.79 224.102 152.615 220.322 152.615 220.322C152.615 220.322 155.563 226.284 165.429 226.175C175.295 226.066 180.147 221.801 182.253 217.831C182.253 217.831 187.761 221.633 196.411 213.79C202.084 208.646 216.15 188.942 196.635 171.183" fill="#0083FF"/>
<path d="M177.452 165.363C177.452 165.363 169.465 182.889 148.191 193.356C135.583 199.048 132.006 199.209 124.25 201.682C121.109 202.383 120.402 211.784 133.868 217.946C143.337 222.419 152.163 218.639 152.163 218.639C152.163 218.639 155.11 224.601 164.976 224.492C174.843 224.383 179.694 220.118 181.801 216.148C181.801 216.148 187.308 219.95 195.959 212.107C201.631 206.963 215.698 187.259 196.183 169.5" fill="#00A7FF"/>
<path d="M33.1556 172.733C33.1556 172.733 41.1421 190.259 62.4169 200.726C75.0249 206.418 79.4265 205.389 87.1828 207.862C90.3236 208.563 90.2054 219.156 76.7399 225.316C67.2706 229.789 58.445 226.009 58.445 226.009C58.445 226.009 55.4977 231.971 45.6313 231.862C35.7648 231.753 30.9131 227.488 28.807 223.518C28.807 223.518 23.2994 227.32 14.6489 219.477C8.97632 214.333 -5.09009 194.629 14.4249 176.87" fill="#0083FF"/>
<path d="M33.6029 171.05C33.6029 171.05 41.5893 188.576 62.8641 199.044C75.4722 204.735 79.0488 204.897 86.8051 207.37C89.9459 208.071 90.6527 217.471 77.1872 223.633C67.7179 228.106 58.8923 224.326 58.8923 224.326C58.8923 224.326 55.945 230.288 46.0785 230.179C36.2121 230.07 31.3603 225.805 29.2542 221.835C29.2542 221.835 23.7466 225.637 15.0962 217.794C9.42358 212.651 -4.64282 192.946 14.8721 175.188" fill="#00A7FF"/>
<defs>
<radialGradient id="paint0_radial_52_17566" cx="0" cy="0" r="1" gradientTransform="matrix(-22.6677 5.06099 5.10233 22.4841 136.994 79.8275)" gradientUnits="userSpaceOnUse">
<stop stop-color="white"/>
<stop offset="0.4497" stop-color="#FDFFFF" stop-opacity="0.5503"/>
<stop offset="0.6117" stop-color="#F6FDFF" stop-opacity="0.3883"/>
<stop offset="0.7272" stop-color="#EBFBFF" stop-opacity="0.2728"/>
<stop offset="0.8205" stop-color="#DAF7FF" stop-opacity="0.1795"/>
<stop offset="0.9005" stop-color="#C4F3FF" stop-opacity="0.0995"/>
<stop offset="0.9701" stop-color="#A9EDFF" stop-opacity="0.0299"/>
<stop offset="1" stop-color="#9BEAFF" stop-opacity="0"/>
</radialGradient>
<radialGradient id="paint1_radial_52_17566" cx="0" cy="0" r="1" gradientTransform="matrix(-28.4219 6.34571 6.39755 28.1916 84.5751 81.6425)" gradientUnits="userSpaceOnUse">
<stop stop-color="white"/>
<stop offset="0.4497" stop-color="#FDFFFF" stop-opacity="0.5503"/>
<stop offset="0.6117" stop-color="#F6FDFF" stop-opacity="0.3883"/>
<stop offset="0.7272" stop-color="#EBFBFF" stop-opacity="0.2728"/>
<stop offset="0.8205" stop-color="#DAF7FF" stop-opacity="0.1795"/>
<stop offset="0.9005" stop-color="#C4F3FF" stop-opacity="0.0995"/>
<stop offset="0.9701" stop-color="#A9EDFF" stop-opacity="0.0299"/>
<stop offset="1" stop-color="#9BEAFF" stop-opacity="0"/>
</radialGradient>
</defs>
</svg>
