<svg width="108" height="108" viewBox="0 0 108 108" fill="none" xmlns="http://www.w3.org/2000/svg">
<path d="M54 108C83.8234 108 108 83.8234 108 54C108 24.1766 83.8234 0 54 0C24.1766 0 0 24.1766 0 54C0 83.8234 24.1766 108 54 108Z" fill="#3858E9"/>
<path d="M53.999 87.1338C38.2537 87.1338 25.0581 76.0125 21.6326 61.1052H4.97266C8.5927 85.2408 29.1647 103.737 53.999 103.737C78.8332 103.737 99.4052 85.2408 103.025 61.1052H86.3458C82.9398 76.0125 69.7442 87.1338 53.999 87.1338Z" fill="white"/>
<path d="M12.7656 72.4254L17.8881 70.0297L17.3428 68.8416L18.6477 68.2378L19.9722 71.062L13.5252 74.0615L12.7656 72.4254Z" fill="#3858E9"/>
<path d="M20.788 79.243C18.8403 80.509 17.1458 80.2558 16.0551 78.5808C14.9449 76.8863 15.4123 75.2307 17.3601 73.9647C19.3078 72.6987 21.0023 72.9519 22.093 74.6464C23.1837 76.3409 22.7163 77.977 20.788 79.243ZM18.3729 75.5229C17.0095 76.3994 16.6589 77.1005 17.1653 77.8601C17.6522 78.6003 18.4313 78.5808 19.7947 77.6848C21.1581 76.8084 21.4892 76.1072 21.0023 75.3671C20.4959 74.6075 19.7363 74.6269 18.3729 75.5229Z" fill="#3858E9"/>
<path d="M25.6802 84.618C23.9857 86.1956 22.2717 86.2541 20.9083 84.7738C19.5254 83.2935 19.7007 81.5796 21.3952 80.0019C23.0897 78.4243 24.8037 78.3658 26.1866 79.8656C27.55 81.3458 27.3747 83.0598 25.6802 84.618ZM22.6612 81.3848C21.4731 82.495 21.2394 83.2351 21.8627 83.8973C22.4665 84.5596 23.2261 84.3843 24.4142 83.2741C25.6023 82.1639 25.8165 81.4237 25.2127 80.781C24.5895 80.1188 23.8493 80.2746 22.6612 81.3848Z" fill="#3858E9"/>
<path d="M33.6881 86.216L35.032 87.1509L26.8127 90.092L25.4688 89.1571L33.6881 86.216ZM30.338 86.4692C29.5784 87.5599 28.4877 87.7937 27.4944 87.112C26.501 86.4303 26.3257 85.3006 27.0854 84.2099C27.845 83.1192 28.9357 82.8854 29.9485 83.5866C30.9418 84.2878 31.0976 85.398 30.338 86.4692ZM28.0203 84.8526C27.5918 85.4759 27.5918 86.0213 28.0397 86.3329C28.4877 86.6445 29.0136 86.4498 29.4421 85.8265C29.8706 85.2032 29.8706 84.6578 29.4226 84.3462C28.9746 84.0541 28.4488 84.2294 28.0203 84.8526ZM33.4544 92.1371C32.6948 93.2278 31.6041 93.481 30.5912 92.7798C29.5979 92.0786 29.4421 90.9684 30.2017 89.8777C30.9613 88.787 32.052 88.5533 33.0648 89.2545C34.0387 89.9362 34.1945 91.0464 33.4544 92.1371ZM31.1171 90.501C30.6886 91.1243 30.6886 91.6891 31.1366 92.0007C31.5846 92.3124 32.1105 92.1176 32.539 91.4943C32.9675 90.8711 32.9675 90.3257 32.5195 90.0141C32.0715 89.7024 31.5456 89.8972 31.1171 90.501Z" fill="#3858E9"/>
<path d="M43.5801 94.3558L42.6842 96.9658C41.7882 97.219 40.5417 97.1995 39.5873 96.8879C37.5422 96.1867 36.5099 94.1805 37.1722 92.2328C37.8344 90.2851 39.9184 89.3502 42.0415 90.0903C43.0348 90.4409 43.9697 91.1811 44.4371 92.0186L43.0737 92.8561C42.7426 92.2328 42.1583 91.7264 41.535 91.5122C40.4249 91.1421 39.2952 91.7069 38.9056 92.8366C38.5161 93.9858 39.0809 95.1349 40.1911 95.5245C40.5417 95.6413 41.0286 95.6608 41.4961 95.6024L42.0999 93.8689L43.5801 94.3558Z" fill="#3858E9"/>
<path d="M51.1993 96.2071C50.9266 98.0574 49.5242 99.0702 47.557 98.7781C45.5704 98.4859 44.4796 97.142 44.7523 95.2917L45.3366 91.2209L47.1285 91.4742L46.5442 95.5449C46.4079 96.4993 46.9338 97.1615 47.7908 97.2978C48.6283 97.4147 49.2905 96.9083 49.4268 95.9734L50.0112 91.9026L51.7836 92.1559L51.1993 96.2071Z" fill="#3858E9"/>
<path d="M54.2358 97.8828L53.7683 99.2072L51.918 99.2851L54.6837 92.0591L56.5341 91.9812L59.8062 98.954L57.878 99.0319L57.3131 97.7464L54.2358 97.8828ZM55.6381 93.8121L54.7032 96.4804L56.7483 96.4025L55.6381 93.8121Z" fill="#3858E9"/>
<path d="M63.992 95.9927L63.9336 96.0122L62.6091 96.3238L63.0571 98.2715L61.3042 98.6806L59.707 91.7662L62.8039 91.0455C64.6348 90.617 65.8813 91.2598 66.2319 92.7985C66.4851 93.8502 66.2124 94.7267 65.4917 95.311L67.4784 97.2587L65.4917 97.7262L63.992 95.9927ZM63.6219 94.6293C64.3815 94.454 64.7321 93.9671 64.5763 93.227C64.401 92.5063 63.8751 92.2336 63.1155 92.4089L61.7911 92.7205L62.2975 94.9215L63.6219 94.6293Z" fill="#3858E9"/>
<path d="M70.1477 94.8044L70.2061 96.2068L68.5116 96.9469L68.4727 89.2145L70.1672 88.4744L75.7571 93.7722L73.9847 94.5512L72.9914 93.5579L70.1477 94.8044ZM69.9724 90.5195L70.0893 93.3437L71.9591 92.5256L69.9724 90.5195Z" fill="#3858E9"/>
<path d="M81.1142 90.1495L75.9332 88.416L78.4263 91.9998L77.0434 92.9737L72.9922 87.15L74.2972 86.2346L79.4781 87.9681L76.985 84.3648L78.3679 83.4104L82.4191 89.2341L81.1142 90.1495Z" fill="#3858E9"/>
<path d="M82.4191 81.4622L86.3924 85.4745L85.1069 86.7405L81.1336 82.7282L79.6339 84.228L78.6016 83.1957L82.906 78.9302L83.9383 79.9625L82.4191 81.4622Z" fill="#3858E9"/>
<path d="M85.3415 78.0159L86.4712 78.8534L88.4774 76.1266L89.6265 76.9641L87.6204 79.6909L88.7695 80.5285L91.0483 77.4121L92.1975 78.2496L88.8669 82.8268L83.1406 78.6392L86.4323 74.1594L87.5814 74.9969L85.3415 78.0159Z" fill="#3858E9"/>
<path d="M88.92 72.4636L90.1861 73.0868L91.7053 70.0679L92.9713 70.7106L91.4521 73.7296L92.7376 74.3723L94.471 70.9249L95.737 71.5676L93.205 76.6317L86.8555 73.4569L89.3485 68.4902L90.6146 69.133L88.92 72.4636Z" fill="#3858E9"/>
<path d="M19.2121 44.3978L13.4274 43.3071L17.8487 46.0144L17.4202 48.3127L12.3172 49.2282L18.1019 50.3189L17.5371 53.3573L6.98047 51.3901L7.66217 47.7089L13.6027 46.4429L8.51916 43.1123L9.20086 39.4312L19.7575 41.3983L19.2121 44.3978Z" fill="#FEFEFE"/>
<path d="M22.0315 27.141C24.7388 28.8355 25.401 32.1856 23.6091 35.0682C21.7977 37.9703 18.5061 38.8467 15.7988 37.1522C13.0915 35.4577 12.4682 32.1466 14.2796 29.2445C16.0909 26.3424 19.3436 25.4659 22.0315 27.141ZM17.727 34.0554C18.9736 34.8344 20.4733 34.5033 21.116 33.4516C21.7588 32.4193 21.3692 30.9974 20.1227 30.2184C18.8762 29.4393 17.4543 29.712 16.8116 30.7442C16.1494 31.8155 16.4805 33.2763 17.727 34.0554Z" fill="#FEFEFE"/>
<path d="M33.5668 24.3362L26.8472 22.6417L30.2362 26.9461L27.7042 28.9328L21.0625 20.4992L23.3998 18.6683L30.1389 20.3823L26.7304 16.0389L29.2624 14.0522L35.9041 22.5053L33.5668 24.3362Z" fill="#FEFEFE"/>
<path d="M38.453 12.8253L38.8815 14.0718L43.6145 12.3968L44.5104 14.9483L39.7775 16.6233L40.2255 17.8893L45.5817 16.0001L46.4776 18.5516L37.7713 21.6095L34.207 11.4814L42.777 8.4624L43.6729 11.0139L38.453 12.8253Z" fill="#FEFEFE"/>
<path d="M54.9316 18.0254L51.3868 18.1033L51.3088 14.8311L47.1797 7.46878L50.7245 7.39087L52.9839 11.4811L54.9705 7.29348L58.5154 7.21558L54.8537 14.7143L54.9316 18.0254Z" fill="#FEFEFE"/>
<path d="M73.3609 11.5005C75.7371 12.5328 76.8278 14.1883 76.1656 15.6881C75.7371 16.6619 74.7243 17.2073 73.5946 17.0709C74.6464 17.85 74.997 19.1745 74.4516 20.4015C73.7115 22.0766 71.6859 22.4856 69.2902 21.4338L64.0703 19.1355L68.3942 9.29956L73.3609 11.5005ZM68.3553 18.1811L69.9135 18.8628C70.5172 19.1355 71.0431 18.9992 71.2574 18.5123C71.4521 18.0838 71.1795 17.6163 70.5757 17.3631L69.0175 16.6814L68.3553 18.1811ZM69.9719 14.5194L71.5301 15.2011C71.978 15.3959 72.4065 15.2401 72.5818 14.8116C72.7571 14.3831 72.5818 13.9936 72.1338 13.7988L70.5757 13.1171L69.9719 14.5194Z" fill="#FEFEFE"/>
<path d="M78.0121 25.1743L76.5708 25.9144L73.9219 23.4213L84.5564 18.6494L87.2248 21.1425L83.0956 31.9913L80.3299 29.4008L80.9726 27.9205L78.0121 25.1743ZM83.4073 22.428L80.4272 23.9472L82.0633 25.4664L83.4073 22.428Z" fill="#FEFEFE"/>
<path d="M95.9166 37.211L92.8003 36.5683C93.2677 35.5944 93.2872 34.4648 92.8977 33.7441C92.2744 32.6144 90.9305 32.2833 89.6839 32.965C88.4179 33.6467 87.9505 34.9712 88.5737 36.1008C88.9438 36.7825 89.8203 37.3863 90.8136 37.659L89.8787 40.5027C88.1647 40.0742 86.5481 38.8861 85.7496 37.4253C84.1719 34.5427 85.0873 31.3095 87.892 29.7708C90.6578 28.2516 93.8521 29.3033 95.4687 32.2638C96.2672 33.7246 96.4425 35.6723 95.9166 37.211Z" fill="#FEFEFE"/>
<path d="M92.9565 46.5795L91.632 45.7615L89.1389 46.19L88.5352 42.6841L99.1112 40.8337L99.715 44.3396L96.0533 44.9824L100.28 47.4949L100.981 51.5267L96.0728 48.5077L90.4244 53.5913L89.6843 49.4037L92.9565 46.5795Z" fill="#FEFEFE"/>
<path d="M53.9992 82.4215C69.6957 82.4215 82.4202 69.6969 82.4202 54.0004C82.4202 38.3039 69.6957 25.5793 53.9992 25.5793C38.3027 25.5793 25.5781 38.3039 25.5781 54.0004C25.5781 69.6969 38.3027 82.4215 53.9992 82.4215Z" fill="white"/>
<path d="M52.1707 76.2136C53.5213 77.0321 55.1843 77.0321 56.5349 76.2136C61.352 73.2941 72.4712 65.3978 72.4712 54.7107V42.2552C72.4712 40.1733 71.1812 38.3093 69.2329 37.5758L56.1145 32.6371C54.9789 32.2096 53.7267 32.2096 52.5912 32.6371L39.4727 37.5758C37.5244 38.3093 36.2344 40.1733 36.2344 42.2552V54.7107C36.2344 65.3978 47.3536 73.2941 52.1707 76.2136Z" fill="#3858E9"/>
<path d="M47.6055 53.6447L53.0528 59.6842L63.9476 47.6052" stroke="white" stroke-width="7" stroke-linecap="round" stroke-linejoin="round"/>
</svg>
